<svg width="331" height="248" viewBox="0 0 331 248" fill="none" xmlns="http://www.w3.org/2000/svg">
<path d="M151.072 24.197L136.642 21.8325L140.043 48.4504L125.863 83.3262L154.136 198.744L246.028 195.721L324.086 164.406L302.58 130.182L254.991 91.7763L227.05 84.8258L221.687 71.083L181.133 35.9864L151.072 24.197Z" fill="#88725B"/>
<path d="M95.9312 51.3812L71.2077 57.8464L69.8634 80.2613L23.3262 115.965L27.19 176.79L41.9495 205.263L173.671 229.313L209.961 219.266L199.532 205.869L201.059 182.53L144.394 70.7388L150.47 47.7194L121.434 32.192L95.9312 51.3812Z" fill="#5B493D"/>
<path d="M20.4269 192.082L17.0775 116.463L71.579 58.4003L85.5065 134.472L29.2921 120.313L39.6872 175.795L76.722 195.109L41.4254 189.399L42.3323 196.497L101.68 206.95L176.037 229.01L250.755 206.84L321.192 174.695L317.883 181.731L250.272 219.526L176.037 229.01L41.3463 214.658L20.4269 192.082Z" fill="#403229"/>
<path d="M216.62 111.408L222.575 70.9698L226.83 85.4552L216.62 111.408Z" fill="#695848"/>
<path d="M249.442 104.809L255.211 91.1471L271.19 105.638L249.442 104.809Z" fill="#695848"/>
<path d="M136.051 21.908L120.842 32.2675L151.766 48.4554L136.051 21.908Z" fill="#695848"/>
<path d="M198.873 221.884L145.061 71.2546L241.043 184.935L283.975 156.305L283.247 174.133L324.306 163.777L322.08 174.582L250.806 211.943L198.873 221.884Z" fill="#695848"/>
<path d="M161.611 132.563L141.778 87.9056L138.285 105.269L161.611 132.563Z" fill="#695749"/>
</svg>
