<svg width="326" height="248" viewBox="0 0 326 248" fill="none" xmlns="http://www.w3.org/2000/svg">
<path d="M147.072 24.197L132.642 21.8325L136.043 48.4504L121.863 83.3262L150.136 198.744L242.028 195.721L320.086 164.406L298.58 130.182L250.991 91.7763L223.05 84.8258L217.687 71.083L177.133 35.9864L147.072 24.197Z" fill="#88725B"/>
<path d="M91.9311 51.3812L67.2077 57.8464L65.8634 80.2613L19.3261 115.965L23.1899 176.79L37.9494 205.263L169.671 229.313L205.961 219.266L195.532 205.869L197.059 182.53L140.393 70.7388L146.47 47.7194L117.434 32.192L91.9311 51.3812Z" fill="#5B493D"/>
<path d="M16.4269 192.082L13.0775 116.463L67.579 58.4003L81.5065 134.472L25.2921 120.313L35.6872 175.795L72.722 195.109L37.4254 189.399L38.3323 196.497L97.6802 206.95L169 229L246.755 206.84L317.192 174.695L313.883 181.731L246.272 219.526L169 229L37.3463 214.658L16.4269 192.082Z" fill="#403229"/>
<path d="M212.62 111.408L218.575 70.9698L222.83 85.4552L212.62 111.408Z" fill="#695848"/>
<path d="M245.442 104.809L251.211 91.1471L267.19 105.638L245.442 104.809Z" fill="#695848"/>
<path d="M132.051 21.908L116.842 32.2675L147.766 48.4554L132.051 21.908Z" fill="#695848"/>
<path d="M194.873 221.885L141.061 71.2549L237.043 184.936L279.975 156.305L279.247 174.133L320.306 163.777L318.08 174.582L246.806 211.943L194.873 221.885Z" fill="#695848"/>
<path d="M157.611 132.563L137.778 87.9056L134.285 105.269L157.611 132.563Z" fill="#695749"/>
</svg>
