<svg width="158" height="160" viewBox="0 0 158 160" fill="none" xmlns="http://www.w3.org/2000/svg">
<path d="M12 74C12 74 12 108 12 113.5C12 119 18.5 123.5 25.5 123.5C32.5 123.5 37.5 118.5 39 113.5C40.5 108.5 38.5 95.5 44 86.5C49.5 77.5 63.5 74 69 74" stroke="#FF8A00" stroke-width="5" stroke-linecap="round" stroke-linejoin="round"/>
<path d="M75.5556 0C64.2018 0 55 9.17695 55 20.5V133.25H147.5V20.5C147.5 9.17695 138.298 0 126.944 0H75.5556Z" fill="#091E42"/>
<path d="M6 44V62H17V44" stroke="#FF8A00" stroke-width="5" stroke-linecap="round" stroke-linejoin="round"/>
<path d="M50.0833 139.5H152.861C155.7 139.5 158 141.793 158 144.625V154.875C158 157.707 155.7 160 152.861 160H50.0833C47.2441 160 44.9444 157.707 44.9444 154.875V144.625C44.9444 141.793 47.2441 139.5 50.0833 139.5Z" fill="#FF8A00"/>
<rect y="53" width="23" height="27" fill="#091E42"/>
<path d="M95 48H115L102 63.5H119L91 95L99.5 71.5H83L95 48Z" fill="#FF8A00" stroke="#FF8A00" stroke-width="5" stroke-linecap="round" stroke-linejoin="round"/>
</svg>
