<svg width="126" height="73" viewBox="0 0 126 73" fill="none" xmlns="http://www.w3.org/2000/svg">
<path d="M68.1023 26.3741C68.1531 27.1919 60.5551 21.0685 66.1267 14.5851C71.6983 8.10165 74.9087 5.29159 72.5982 0C72.5982 0 80.9235 5.91022 75.2673 12.8061C69.9629 19.2825 67.7843 21.1524 68.1023 26.3741Z" fill="white"/>
<path d="M72.991 38.4601C73.0353 39.1453 66.2466 34.0186 71.2284 28.5933C76.2067 23.1679 79.0753 20.8137 77.0098 16.3862C77.0098 16.3862 84.4484 21.3337 79.3952 27.1069C74.6516 32.5217 72.7052 34.0889 72.991 38.4601Z" fill="white"/>
<path d="M41.4168 49.94C41.4168 49.94 40.5456 44.6719 36.0879 45.1666C31.6301 45.6612 32.2766 50.1891 32.2766 50.1891C32.2766 50.1891 28.9282 45.1631 24.3683 48.6463C19.8119 52.1296 21.9693 56.5053 21.9693 56.5053C21.9693 56.5053 16.4566 54.3641 14.6633 56.7578C9.95029 63.0394 17.7701 66.4811 17.7701 66.4811L36.8671 67.5569L41.4168 49.94Z" fill="#36B37E"/>
<path d="M36.7208 67.0153C36.7208 67.0153 31.8255 63.6757 31.3895 59.2148C30.6912 52.0676 37.9267 50.1742 42.0248 47.2259C46.1229 44.2776 55.525 31.335 72.4522 31.335C89.3794 31.335 106.221 48.6092 101.261 65.4992C98.6725 74.3232 36.7208 67.0153 36.7208 67.0153Z" fill="#D49E6C"/>
<path d="M47.4307 67.5567C47.4307 67.5567 45.8629 65.3965 47.4307 62.3771C48.9984 59.3576 49.1125 59.7194 53.1242 55.9764C57.1359 52.2299 57.6059 47.4189 62.148 49.287C66.6901 51.155 63.004 57.3365 62.0103 59.5733C61.0133 61.81 60.3452 67.5567 60.3452 67.5567H47.4307Z" fill="#CE8F55"/>
<path d="M64.364 66.8344C64.364 66.8344 74.3934 57.2206 76.3898 58.8258C78.3827 60.431 69.3566 67.5567 69.3566 67.5567L64.364 66.8344Z" fill="#C7F4A4"/>
<path d="M75.6774 67.2693C75.6774 67.2693 79.4707 63.2195 78.0293 62.2147C76.5878 61.2099 69.4011 66.8484 69.4011 66.8484L75.6774 67.2693Z" fill="#36B37E"/>
<path d="M111.148 32.1776C111.148 32.1776 77.0693 37.6238 81.5629 51.7762C86.053 65.9321 111.614 43.2868 113.474 36.5884C113.474 36.5884 119.3 39.6281 119.743 35.3572C120.189 31.0862 115.515 32.321 115.515 32.321C115.515 32.321 117.593 26.8083 114.67 26.462C111.747 26.1158 111.148 32.1776 111.148 32.1776Z" fill="#CE8F55"/>
<path d="M92.1451 67.3946C92.1451 67.3946 89.908 64.9444 92.4255 62.5987C94.943 60.253 99.4376 61.492 99.4376 61.492C99.4376 61.492 98.9143 56.6265 103.871 55.384C108.827 54.1415 108.345 59.442 108.345 59.442C108.345 59.442 114.361 55.9095 115.637 60.7124C116.913 65.5152 112.172 68.7067 112.172 68.7067L92.1451 67.3946Z" fill="#C7F4A4"/>
<path d="M0 66.0884H125.37L122.292 72.4128L1.4509 72.1426L0 66.0884Z" fill="#BBDAD2"/>
</svg>
