<svg width="173" height="112" viewBox="0 0 173 112" fill="none" xmlns="http://www.w3.org/2000/svg">
<path d="M173 66.4533L95.4483 60.48L79.0431 103.04L140.935 112L173 66.4533Z" fill="url(#paint0_linear_116_538)" fill-opacity="0.14"/>
<path d="M111.108 3.00684L80.3857 14.5716L79.9237 103.852L106.488 74.4773L111.108 3.00684Z" fill="#957453"/>
<path d="M81.7716 14.8029L0.230957 9.71436L1.61692 91.3618L79.9236 103.852L81.7716 14.8029Z" fill="#BD9466"/>
<path d="M41.8098 0L0 9.94572L81.5406 15.2655L111.108 3.00685L41.8098 0Z" fill="#DBB582"/>
<path d="M32.801 45.1029V12.0276L60.2892 0.795898L69.067 1.15672L42.7337 12.7215L42.2717 45.1029H32.801Z" fill="white" fill-opacity="0.16"/>
<path d="M22.1753 4.62572L27.7191 3.46924L100.482 7.40127L98.8651 37.4697L95.6311 39.5514L96.0931 9.25164L22.1753 4.62572Z" fill="white" fill-opacity="0.12"/>
<defs>
<linearGradient id="paint0_linear_116_538" x1="86.5" y1="75.4133" x2="130.503" y2="86.5858" gradientUnits="userSpaceOnUse">
<stop/>
<stop offset="1" stop-opacity="0"/>
</linearGradient>
</defs>
</svg>
