<svg width="142" height="92" viewBox="0 0 142 92" fill="none" xmlns="http://www.w3.org/2000/svg">
<path d="M142 54.5868L78.3448 49.6802L64.8793 84.6402L115.681 92.0002L142 54.5868Z" fill="url(#paint0_linear_116_531)" fill-opacity="0.14"/>
<path d="M91.1982 2.46973L65.9813 11.9694L65.6021 85.3067L87.4062 61.1776L91.1982 2.46973Z" fill="#957453"/>
<path d="M67.1189 12.1598L0.189575 7.97998L1.32718 75.0475L65.6021 85.3072L67.1189 12.1598Z" fill="#BD9466"/>
<path d="M34.3179 0L0 8.1697L66.9293 12.5395L91.1983 2.46991L34.3179 0Z" fill="#DBB582"/>
<path d="M26.9235 37.0489V9.87987L49.486 0.653809L56.6909 0.950198L35.0763 10.4499L34.6971 37.0489H26.9235Z" fill="white" fill-opacity="0.16"/>
<path d="M18.2018 3.80006L22.7522 2.8501L82.4767 6.07998L81.1494 30.7791L78.495 32.489L78.8742 7.59992L18.2018 3.80006Z" fill="white" fill-opacity="0.12"/>
<defs>
<linearGradient id="paint0_linear_116_531" x1="71" y1="61.9468" x2="107.121" y2="71.1112" gradientUnits="userSpaceOnUse">
<stop/>
<stop offset="1" stop-opacity="0"/>
</linearGradient>
</defs>
</svg>
