<svg width="91" height="152" viewBox="0 0 91 152" fill="none" xmlns="http://www.w3.org/2000/svg">
<path fill-rule="evenodd" clip-rule="evenodd" d="M79.8331 98.5857C76.6427 92.1648 72.5773 88.836 69.2688 88.0089L68.1675 92.4142C69.7026 92.798 72.9027 94.8425 75.7666 100.606C78.5954 106.299 80.9785 115.427 80.9785 129.414H85.5193C85.5193 114.945 83.0588 105.077 79.8331 98.5857Z" fill="#322727"/>
<path fill-rule="evenodd" clip-rule="evenodd" d="M16.1233 94.4899C20.3186 88.6756 24.8726 86.0546 28.2716 85.7783L28.6395 90.3042C27.0623 90.4324 23.5717 91.9275 19.8057 97.1469C16.0861 102.302 12.2458 110.919 9.96394 124.719L5.48392 123.978C7.84437 109.703 11.8818 100.368 16.1233 94.4899Z" fill="#322727"/>
<path d="M87.1388 133.152C89.5287 125.291 83.2627 122.566 81.3265 123.587C79.3902 124.608 80.618 127.928 80.3346 129.665C80.0512 131.401 77.8296 133.267 77.6663 135.171C77.503 137.075 77.08 138.196 79.6378 139.355C82.1956 140.514 85.5468 138.388 87.1388 133.152Z" fill="#FF5630"/>
<path d="M3.09323 127.371C2.01777 119.225 8.64427 117.559 10.388 118.883C12.1318 120.206 10.3788 123.281 10.3752 125.04C10.3715 126.799 12.259 129.002 12.1094 130.908C11.9598 132.814 12.1944 133.988 9.4817 134.714C6.76898 135.441 3.8096 132.797 3.09323 127.371Z" fill="#FF5630"/>
<path d="M72.0474 76.1289L20.2817 72.9564V125.479C20.2817 139.774 31.8698 151.362 46.1646 151.362C60.4593 151.362 72.0474 139.774 72.0474 125.479V76.1289Z" fill="#FF5630"/>
<path d="M54.187 101.866C54.187 103.956 55.8811 106.256 57.971 106.256C60.0609 106.256 61.7551 104.562 61.7551 102.472C61.7551 100.382 60.0609 98.6879 57.971 98.6879C55.8811 98.6879 54.187 99.7766 54.187 101.866Z" fill="#322727"/>
<path d="M43.6441 104.688C45.1066 106.18 47.9261 106.637 49.4189 105.175C50.9118 103.712 50.9363 101.317 49.4738 99.8237C48.0112 98.3309 45.6154 98.3063 44.1226 99.7689C42.6298 101.231 42.1815 103.195 43.6441 104.688Z" fill="#322727"/>
<path d="M37.7741 99.9789C36.1561 98.6561 33.3034 98.5122 31.9807 100.13C30.6579 101.748 30.8973 104.132 32.5153 105.455C34.1332 106.778 36.5172 106.538 37.8399 104.92C39.1627 103.302 39.3921 101.302 37.7741 99.9789Z" fill="#322727"/>
<path d="M79.9962 33.7745C79.7677 31.0044 77.3369 28.944 74.5668 29.1725C73.8378 29.2326 73.2956 29.8723 73.3557 30.6013L74.3666 42.8578C74.4353 43.6909 75.1664 44.3106 75.9995 44.2419L76.6029 44.1921C78.9356 43.9997 80.6707 41.9527 80.4783 39.62L79.9962 33.7745Z" fill="#322727"/>
<path d="M11.502 39.8478C11.677 42.6218 14.0676 44.7287 16.8416 44.5538C17.5716 44.5077 18.1261 43.8786 18.0801 43.1486L17.3058 30.8748C17.2532 30.0405 16.5342 29.4069 15.6999 29.4595L15.0956 29.4976C12.7596 29.645 10.9854 31.6582 11.1327 33.9942L11.502 39.8478Z" fill="#322727"/>
<path fill-rule="evenodd" clip-rule="evenodd" d="M84.565 33.8267C82.7014 35.2994 79.9655 36.1753 75.9833 36.1753V37.6889C80.1746 37.6889 83.2851 36.7674 85.5035 35.0142C87.728 33.2563 88.954 30.7426 89.535 27.7685C90.1139 24.8053 90.0637 21.3336 89.6993 17.5746C89.3344 13.8112 88.6484 9.70706 87.9302 5.47363L86.4379 5.72679C87.1577 9.96962 87.8339 14.0202 88.1927 17.7207C88.552 21.4258 88.5869 24.7275 88.0495 27.4782C87.5143 30.218 86.4225 32.3587 84.565 33.8267Z" fill="#322727"/>
<path d="M82.9459 3.1786C82.9459 5.26847 84.6401 7.56809 86.7299 7.56809C88.8198 7.56809 90.514 5.87392 90.514 3.78405C90.514 1.69418 88.8198 0 86.7299 0C84.6401 0 82.9459 1.08873 82.9459 3.1786Z" fill="#FF5630"/>
<path fill-rule="evenodd" clip-rule="evenodd" d="M5.94881 35.3403C7.81244 36.8131 10.5483 37.689 14.5305 37.689V39.2026C10.3392 39.2026 7.22874 38.281 5.01032 36.5279C2.78579 34.7699 1.55981 32.2563 0.978753 29.2821C0.399847 26.319 0.450046 22.8472 0.8145 19.0883C1.17939 15.3248 1.86539 11.2207 2.58356 6.9873L4.07586 7.24046C3.3561 11.4833 2.67985 15.5338 2.32105 19.2344C1.96182 22.9395 1.92689 26.2412 2.46429 28.9919C2.99954 31.7316 4.09129 33.8724 5.94881 35.3403Z" fill="#322727"/>
<path d="M7.56815 4.69227C7.56815 6.78214 5.87398 9.08176 3.78411 9.08176C1.69424 9.08176 6.10352e-05 7.38759 6.10352e-05 5.29772C6.10352e-05 3.20785 1.69424 1.51367 3.78411 1.51367C5.87398 1.51367 7.56815 2.6024 7.56815 4.69227Z" fill="#FF5630"/>
<path d="M15.7416 38.6195C15.7416 55.6731 29.6338 69.4977 46.7708 69.4977C63.9077 69.4977 77.7999 55.6731 77.7999 38.6195C77.7999 21.5659 63.9077 7.74127 46.7708 7.74127C29.028 5.9932 14.3554 17.5654 15.7416 38.6195Z" fill="#FF5630"/>
<path d="M63.683 29.8267C63.6197 28.6933 62.6496 27.8259 61.5162 27.8892C60.3828 27.9525 59.5153 28.9226 59.5786 30.056L59.9571 36.8327C60.0204 37.9661 60.9906 38.8336 62.1239 38.7703C63.2573 38.7069 64.1248 37.7368 64.0615 36.6034L63.683 29.8267Z" fill="#322727"/>
<path d="M46.8248 29.906C46.8123 28.7709 45.8821 27.8608 44.747 27.8732C43.6119 27.8857 42.7018 28.8159 42.7143 29.951L42.7886 36.7379C42.8011 37.873 43.7313 38.7831 44.8664 38.7706C46.0015 38.7582 46.9116 37.8279 46.8991 36.6929L46.8248 29.906Z" fill="#322727"/>
<path fill-rule="evenodd" clip-rule="evenodd" d="M57.2903 51.4362C57.1084 51.0599 56.6558 50.9024 56.2796 51.0843C55.1242 51.6429 54.3225 51.9028 53.568 51.9164C52.827 51.9298 52.0374 51.7063 50.9141 51.0997C50.5463 50.9011 50.0872 51.0383 49.8886 51.4061C49.69 51.7739 49.8272 52.233 50.1949 52.4316C51.4361 53.1017 52.4915 53.4498 53.5954 53.4298C54.6859 53.4101 55.7292 53.0316 56.9384 52.447C57.3147 52.2651 57.4723 51.8125 57.2903 51.4362Z" fill="#322727"/>
</svg>
